<?xml version="1.0" encoding="utf-8"?>
<!-- Generator: Adobe Illustrator 12.0.0, SVG Export Plug-In . SVG Version: 6.00 Build 51448)  -->
<!DOCTYPE svg PUBLIC "-//W3C//DTD SVG 1.1//EN" "http://www.w3.org/Graphics/SVG/1.1/DTD/svg11.dtd" [
	<!ENTITY ns_svg "http://www.w3.org/2000/svg">
	<!ENTITY ns_xlink "http://www.w3.org/1999/xlink">
]>
<svg  version="1.1" id="Layer_1" xmlns="&ns_svg;" xmlns:xlink="&ns_xlink;" width="300.189" height="178.474"
	 viewBox="0 0 300.189 178.474" overflow="visible" enable-background="new 0 0 300.189 178.474" xml:space="preserve">
<path fill-rule="evenodd" clip-rule="evenodd" fill="#FFFFFF" d="M82.533,145.99c-25,0-50,0-75,0c0-38,0-76,0-114
	c25.333,0,50.667,0,76,0C82.866,69.657,84.866,109.989,82.533,145.99z"/>
<path fill-rule="evenodd" clip-rule="evenodd" fill="#FFFFFF" d="M42.533,152.99c8.552-2.668,14.518,7.501,10,14
	C44.554,178.467,29.575,157.032,42.533,152.99z"/>
<path fill-rule="evenodd" clip-rule="evenodd" fill="#B2B2B2" d="M86.533,4.99c5.739,5.739,4,28.012,4,42c0,26.982,0,53.604,0,84
	c0,18.097,2.236,33.416-1,40c-4.416,8.984-25.533,7-43,7c-13.869,0-38.287,3.011-44-6c-4.086-6.444-2-28.906-2-42
	c0-34.012,0-52.648,0-87c0-12.718-2.17-33.617,4-39c7.595-6.626,24.033-3,39-3C60.046,0.99,79.43-2.113,86.533,4.99z M83.533,31.99
	c-25.333,0-50.667,0-76,0c0,38,0,76,0,114c25,0,50,0,75,0C84.866,109.989,82.866,69.657,83.533,31.99z M52.533,166.99
	c4.518-6.499-1.448-16.668-10-14C29.575,157.032,44.554,178.467,52.533,166.99z"/>
<path fill-rule="evenodd" clip-rule="evenodd" fill="#666666" d="M159.533,55.99c-8.394,9.273-18.618,16.715-26,27
	c-8.588-8.415-20.744-18.585-26-27c5,0,10,0,15,0c-2.375-10.936-3.208-17.214-11-23c-2.32-1.723-12.609-2.794-14-5
	c-3.361-5.331,2.369-12.794,0-21c24.678,2.069,40.343,16.768,45,36c0.434,1.79-0.402,10.632,1,12
	C146.826,58.205,156.063,54.608,159.533,55.99z"/>
<path fill-rule="evenodd" clip-rule="evenodd" fill="#666666" d="M268.533,94.99c1.796,15.744,1,35.623,1,56
	c0,2.407,1.289,17.456,0,19c-2.035,2.439-22.53,1-29,1c-29.022,0-60.394,0.805-86-1c38,0,76,0,114,0
	C268.533,144.99,268.533,119.99,268.533,94.99z"/>
<path fill-rule="evenodd" clip-rule="evenodd" fill="#FFFFFF" d="M147.533,134.99c-6.988,20.208-28.586-11.772-8-12
	C145.296,122.927,150.301,126.984,147.533,134.99z"/>
<path fill-rule="evenodd" clip-rule="evenodd" d="M134.533,176.99c-15.199-2.651-11-25.239-11-48c0-15.119-1.902-32.098,4-38
	c6.201-6.201,26.555-4,41-4c29.513,0,57.382,0,89,0c14.956,0,33.084-2.484,39,5c5.746,7.269,3,27.328,3,42
	c0,12.303,4.583,42.486-11,43C237.2,176.99,185.866,176.99,134.533,176.99z M139.533,122.99c-20.586,0.228,1.012,32.208,8,12
	C150.301,126.984,145.296,122.927,139.533,122.99z"/>
<path fill-rule="evenodd" clip-rule="evenodd" fill="#FFFFFF" d="M268.533,94.99c0,25,0,50,0,75c-38,0-76,0-114,0
	c0-25.333,0-50.667,0-76"/>
</svg>
